<?xml version="1.0" encoding="UTF-8"?>
<svg id="Capa_1" data-name="Capa 1" xmlns="http://www.w3.org/2000/svg" version="1.1" viewBox="0 0 300 300">
  <defs>
    <style>
      .cls-1 {
        fill: #f7931d;
        stroke-width: 0px;
      }
    </style>
  </defs>
  <path class="cls-1" d="M133.5,26.1c-10.7,1.6-13.2,2.2-21.9,5-43.4,14.2-74.6,49.3-84.3,94.9-2.4,11.5-2.4,36.2,0,47.7,5.5,26.1,16.1,45.8,34.7,64.3,10.4,10.5,19,16.9,30.5,22.8,9,4.6,22,9.5,29,10.8,1.1.2,3.1.6,4.5.9,9.6,2,32.3,2.6,41,1.2,1.9-.3,5.3-.9,7.5-1.2,6.6-1.1,22.6-6.5,30-10.2,33.6-16.8,58.8-48.2,67-83.8,3.5-14.9,4-38.7,1.1-52-2.2-10.2-4.8-18.6-8.6-27.5-1.8-4.1-3.8-8.2-4.6-9.1-.8-.8-1.4-1.9-1.4-2.3,0-2.2-9.9-15.3-18-24-5.7-6-19.2-17.4-21.9-18.4-.9-.3-1.8-.8-2.1-1.2-.3-.3-4.6-2.7-9.6-5.3-10-5.1-20.5-8.8-32.2-11.3-8.5-1.8-32.6-2.6-40.7-1.3Z"/>
</svg>