<svg xmlns="http://www.w3.org/2000/svg" width="15.04" height="18.8" viewBox="0 0 15.04 18.8">
  <g id="bx-map" transform="translate(-31.999 -16)">
    <path id="Trazado_19" data-name="Trazado 19" d="M67.76,55.52A3.76,3.76,0,1,0,64,51.76,3.764,3.764,0,0,0,67.76,55.52Zm0-5.64a1.88,1.88,0,1,1-1.88,1.88A1.882,1.882,0,0,1,67.76,49.88Z" transform="translate(-28.241 -28.24)" fill="#9ca0a3"/>
    <path id="Trazado_20" data-name="Trazado 20" d="M38.974,34.625a.938.938,0,0,0,1.09,0c.286-.2,7-5.052,6.975-11.105a7.52,7.52,0,0,0-15.04,0C31.972,29.574,38.688,34.423,38.974,34.625Zm.545-16.745a5.647,5.647,0,0,1,5.64,5.645c.02,4.172-4.125,7.918-5.64,9.146-1.514-1.23-5.66-4.976-5.64-9.151A5.646,5.646,0,0,1,39.519,17.88Z" fill="#9ca0a3"/>
  </g>
</svg>
