<svg xmlns="http://www.w3.org/2000/svg" width="25.364" height="23.556" viewBox="0 0 25.364 23.556">
  <g id="Fecha_1" data-name="Fecha 1" transform="translate(0.464 0.464)">
    <g id="Grupo_44" data-name="Grupo 44" transform="translate(0 0)">
      <path id="Trazado_33" data-name="Trazado 33" d="M28.788,18.851A7.248,7.248,0,1,1,21.541,11.6,7.247,7.247,0,0,1,28.788,18.851Z" transform="translate(-4.688 -3.806)" fill="none" stroke="#9ca0a3" stroke-miterlimit="10" stroke-width="1.6"/>
      <path id="Trazado_34" data-name="Trazado 34" d="M25.079,16.641V20.5l2.81,1.173" transform="translate(-8.226 -5.459)" fill="none" stroke="#9ca0a3" stroke-linecap="round" stroke-linejoin="round" stroke-width="1.6"/>
      <path id="Trazado_35" data-name="Trazado 35" d="M8.586,20.248H2.406A1.912,1.912,0,0,1,.5,18.342V5.243A1.912,1.912,0,0,1,2.406,3.337H19.038a1.912,1.912,0,0,1,1.906,1.906v2.5" transform="translate(-0.164 -1.095)" fill="none" stroke="#9ca0a3" stroke-linecap="round" stroke-linejoin="round" stroke-width="1.6"/>
      <line id="Línea_3" data-name="Línea 3" y2="3.945" transform="translate(5.792 0.336)" fill="none" stroke="#9ca0a3" stroke-linecap="round" stroke-linejoin="round" stroke-width="1.6"/>
      <line id="Línea_4" data-name="Línea 4" y2="3.945" transform="translate(15.39 0.336)" fill="none" stroke="#9ca0a3" stroke-linecap="round" stroke-linejoin="round" stroke-width="1.6"/>
      <line id="Línea_5" data-name="Línea 5" x2="9.729" transform="translate(0.336 8.29)" fill="none" stroke="#9ca0a3" stroke-linecap="round" stroke-linejoin="round" stroke-width="1.6"/>
    </g>
  </g>
</svg>
