<?xml version="1.0" encoding="UTF-8"?>
<svg id="Capa_1" data-name="Capa 1" xmlns="http://www.w3.org/2000/svg" version="1.1" viewBox="0 0 47.3 37.4">
  <defs>
    <style>
      .cls-1 {
        opacity: .7;
      }

      .cls-2 {
        opacity: .5;
      }

      .cls-3 {
        fill: #f29222;
      }

      .cls-3, .cls-4, .cls-5 {
        stroke-width: 0px;
      }

      .cls-4 {
        fill: #fff;
      }

      .cls-5 {
        fill: #f39323;
      }
    </style>
  </defs>
  <path class="cls-4" d="M39.8,32.1c0-8.8-7.2-16-16-16s-15.6,6.7-16,15.3v.5s.4.3.4.3c.2.2.4.4.6.6h.1c1.4,1.5,2.5,2.1,3.6,2.1s2.1-.7,3.5-2l.8-.8c.6-.4,1.3-.5,2-.4.7.1,1.4.5,1.8,1.1h.1c2.6,2.6,4.2,2.6,6.9.1l.8-.8c1.3-.8,3.1-.5,4,.7h.1c.5.7,1.1,1.3,2,1.6h0c1.7.6,3.6,0,4.7-1.4l.5-.5v-.5Z"/>
  <path class="cls-3" d="M7.4,34.4c-.8,0-1.5-.7-1.5-1.5v-.3c0-9.9,8.1-18,18-18s18,8.1,18,18c-1,2.3-.7,1.5-1.5,1.5s-1.5-.7-1.5-1.5c0-8.3-6.7-15-15-15s-15,6.7-15,15v.3c0,.8-.6,1.5-1.5,1.5h0Z"/>
  <path class="cls-3" d="M24.2,36.9c-1.6,0-2.9-.4-4.7-2.1,0,0-.1-.2-.2-.2-.3-.4-.9-.5-1.3-.2,0,0-.2,0-.2.2,0,0-.1.2-.2.2-3.6,3.4-6.3,3.4-10,0,0,0,0,0-.2-.2,0-.2-.3-.3-.6-.3s-.4,0-.6.2c0,0,0,0-.2.2,0,0,0,.2-.2.2-.2.2-.4.4-.6.6-.4.4-.8.8-1.2,1.2-1,.9-2.5.9-3.5,0-.6-.6-.6-1.5,0-2.1.5-.5,1.2-.6,1.7-.3.3-.2.5-.5.8-.8.2-.2.4-.4.6-.6.2-.3.5-.6.8-.8.8-.6,1.8-.9,2.9-.7,1,.1,1.8.6,2.4,1.4,2.5,2.3,3.3,2.3,5.7,0,.3-.3.6-.6.9-.9,1.7-1.2,4.1-.8,5.3.9,2.2,2.1,3.2,2.1,5.5,0l.9-.9c1.8-1.2,4.2-.8,5.4.9.5.5,1,1,1.7,1.3,1.3.4,2.8,0,3.6-1.1h0c.8-.9,1.8-1.8,3.2-1.8h0c1.3,0,2.4.9,3.2,1.6.2.2.4.4.6.6.3.3.6.7,1,.9.6.5.7,1.5.2,2.1s-1.5.7-2.1.2l-1.2-1.2c-.2-.2-.4-.4-.5-.6-.8-.8-1.1-.8-1.1-.8h0s-.3,0-1,.7c-1.7,2.1-4.5,3-7,2h0c-1.1-.5-2-1.3-2.8-2.2h0c-.3-.5-.9-.6-1.3-.3,0,0-.2,0-.2.2,0,0-.1.2-.2.2-1.8,1.7-3.4,2.5-4.9,2.5h-.4ZM2,34.4h0Z"/>
  <g id="Grupo_6" data-name="Grupo 6" class="cls-2">
    <rect id="Rectángulo_4" data-name="Rectángulo 4" class="cls-5" x="16.5" width="16.3" height="3.2"/>
  </g>
  <g id="Grupo_7" data-name="Grupo 7" class="cls-1">
    <rect id="Rectángulo_5" data-name="Rectángulo 5" class="cls-5" x="18.5" y="4.6" width="12.2" height="3.2"/>
  </g>
  <g id="Grupo_8" data-name="Grupo 8">
    <rect id="Rectángulo_6" data-name="Rectángulo 6" class="cls-5" x="23.2" y="9.2" width="3" height="3.2"/>
  </g>
</svg>