<?xml version="1.0" encoding="UTF-8"?>
<svg xmlns="http://www.w3.org/2000/svg" version="1.1" xmlns:xlink="http://www.w3.org/1999/xlink" viewBox="0 0 500 500">
  <defs>
    <style>
      .cls-1 {
        fill: #f7931d;
      }

      .cls-1, .cls-2, .cls-3, .cls-4, .cls-5, .cls-6, .cls-7, .cls-8, .cls-9, .cls-10, .cls-11, .cls-12, .cls-13 {
        stroke-width: 0px;
      }

      .cls-14 {
        opacity: .5;
      }

      .cls-2 {
        fill: #efb284;
      }

      .cls-15 {
        isolation: isolate;
      }

      .cls-16 {
        stroke: #eaedf4;
      }

      .cls-16, .cls-4, .cls-17, .cls-18 {
        fill: none;
      }

      .cls-16, .cls-17 {
        stroke-width: 5px;
      }

      .cls-16, .cls-17, .cls-18 {
        stroke-linecap: round;
        stroke-linejoin: round;
      }

      .cls-3, .cls-8 {
        fill: #d5dbea;
      }

      .cls-5 {
        fill: #ffdcc5;
      }

      .cls-6 {
        fill: #dbdbdb;
      }

      .cls-6, .cls-8 {
        mix-blend-mode: multiply;
      }

      .cls-7 {
        fill: #d4eeff;
      }

      .cls-19 {
        opacity: .8;
      }

      .cls-9 {
        fill: #c1cadf;
      }

      .cls-10 {
        fill: #686868;
      }

      .cls-20 {
        clip-path: url(#clippath);
      }

      .cls-17, .cls-18 {
        stroke: #fff;
      }

      .cls-18 {
        stroke-width: 10px;
      }

      .cls-11 {
        fill: #fff;
      }

      .cls-12 {
        fill: #f7c192;
      }

      .cls-13 {
        fill: #ff9700;
      }
    </style>
    <clipPath id="clippath">
      <path class="cls-4" d="M393.4,416.3c-62.8,60.7-283.5,76-346.3,15.2C-15.6,370.8-9.4,157.3,53.3,96.6c62.8-60.7,286.1-69.3,348.9-8.6,62.8,60.7,54,267.5-8.8,328.3Z"/>
    </clipPath>
  </defs>
  <g class="cls-15">
    <g id="Capa_3" data-name="Capa 3">
      <path class="cls-4" d="M645.9,380.2c9-15.3,28.1-27.6,46.2-31.9,18.2-4.3,38.2-1.4,54,8,13.7,8.1,24.7,20.9,40.4,24.6,16.1,3.8,32.9-3.2,46.4-12.2,13.4-9.1,25.2-20.5,39.8-27.7,32.8-16.2,76.5-7.1,101.8,18.3,25.3,25.4,32.5,64.1,21.8,97.3-7.4,23-22.3,43.3-31.8,65.7-3.2,7.6-5.7,16.5-1.5,23.6,5.8,9.8,20,10.7,31.3,14.6,15.9,5.4,28.2,19.4,30.8,35,2.1,12.7-1.8,25.7-7.7,37.3-23.6,46.7-74,67.8-126.8,83.1h-244.7c0,.1,0-335.6,0-335.6Z"/>
      <g class="cls-20">
        <g>
          <rect class="cls-3" x=".2" y="79.4" width="405" height="392"/>
          <path class="cls-7" d="M280.7,458.2l-15.9-35.7-135.8-52.2-24-88.5-61-95.2,30.2-107.2,88.2-58.1,287.6,14.1s25.8,137.3,27,142-35.2,186.5-35.2,186.5l-11.3,110.3-134.6,25.7-15.2-41.8Z"/>
          <g>
            <polyline class="cls-18" points="71.1 77.9 39.8 177.3 100.8 279.9 124.9 372.5 260.6 420.6 292.4 491.7"/>
            <polyline class="cls-17" points="25.4 244.5 50.5 386.2 -20.3 405"/>
            <polyline class="cls-17" points="270.1 449.6 108.4 427.4 -20.3 446.1"/>
            <line class="cls-16" x1="108.4" y1="434.7" x2="108.4" y2="474.3"/>
            <polygon class="cls-9" points="151.3 409.7 146.7 422.6 166.1 430.3 166.9 420 151.3 409.7"/>
            <polygon class="cls-9" points="62.9 428.1 83.5 426.5 83.5 415.8 55.1 418.8 62.9 428.1"/>
            <rect class="cls-4" x=".2" y="114.3" width="305.6" height="356.3"/>
            <polyline class="cls-17" points="71.1 233.6 89.8 205.6 124.9 207.6"/>
            <line class="cls-17" x1="-36.6" y1="237.4" x2="87.3" y2="251.6"/>
            <polyline class="cls-17" points="31.1 276.6 66.8 278.2 103 393.5 50.5 393.5"/>
            <line class="cls-17" x1="44.2" y1="357.8" x2="93.3" y2="362.5"/>
            <polygon class="cls-9" points="25.4 206.8 31.1 205.7 46.7 232.1 32.2 234.8 25.4 206.8"/>
            <polygon class="cls-9" points="13 118 6.7 131.4 44 127.6 44 118 13 118"/>
          </g>
          <g>
            <g>
              <path class="cls-10" d="M213.6,444.6l3.3,1.5c-2.4,5-3.4,8.1-3.4,8.1l-3.5-1c0-.1,1-3.3,3.6-8.6Z"/>
              <path class="cls-10" d="M287.7,100.1c4-2.9,8.3-5.5,12.7-7.8l1.6,3.2c-5.2,2.7-10.1,5.8-14.8,9.5l-2.2-2.8c.9-.7,1.8-1.4,2.7-2ZM271.6,114.5l2.7,2.4c-3.9,4.2-7.5,8.9-10.8,13.9l-3-2c3.4-5.1,7.2-10,11.2-14.3ZM317.3,85.5c5.8-1.7,11.8-2.9,17.8-3.5l.3,3.6c-5.8.6-11.6,1.7-17.2,3.3l-1-3.5ZM251.4,144.5l3.3,1.6c-2.5,5.1-4.8,10.6-6.9,16.2l-3.4-1.2c2.1-5.8,4.5-11.4,7.1-16.6ZM353.2,81.8c5.9.4,11.9,1.4,17.8,2.8l-.9,3.5c-5.7-1.4-11.5-2.3-17.3-2.7l.3-3.6ZM388.2,90.3c5.5,2.3,10.9,5,16,8.1l-1.9,3.1c-5-3-10.2-5.7-15.5-7.9l1.4-3.3ZM418.8,108.8c4.6,3.8,8.9,8,12.9,12.5l-2.7,2.4c-3.8-4.3-8-8.4-12.5-12.1l2.4-2.8ZM439.4,137.5l3.1-2c1.9,2.9,3.6,6,5.2,9.1,1.1,2.2,2.2,4.5,3.2,6.7l-3.3,1.5c-.9-2.2-2-4.4-3.1-6.5-1.5-3-3.2-6-5.1-8.8ZM453,169.3l3.5-.9c1.4,5.7,2.3,11.7,2.8,17.7l-3.6.3c-.5-5.8-1.4-11.6-2.7-17.2ZM455.7,204l3.6.2c-.4,5.9-1.2,11.9-2.5,17.8l-3.6-.7c1.2-5.8,2-11.6,2.4-17.4ZM448.7,238.3l3.4,1.1c-1.9,5.6-4.2,11.2-6.8,16.7l-3.3-1.5c2.6-5.3,4.8-10.8,6.7-16.3ZM274,378.5c4.9-3.3,10-6.5,15.3-9.6l1.8,3.1c-5.2,3-10.3,6.1-15.1,9.4l-2-3ZM259.5,389.2l2.3,2.8c-4.7,3.8-9.1,7.7-13.3,11.8l-2.5-2.6c4.2-4.1,8.8-8.2,13.5-12ZM305.3,360.5c5.3-2.6,10.9-5,16.5-7.3l1.3,3.3c-5.6,2.3-11,4.7-16.3,7.2l-1.5-3.3ZM233.6,414.5l2.8,2.3c-3.9,4.6-7.5,9.4-10.6,14.1l-3-2c3.3-4.9,6.9-9.8,10.9-14.5ZM433.5,270.1l3.1,1.9c-3.1,5.1-6.6,10.1-10.3,14.9l-2.9-2.2c3.6-4.7,7-9.6,10.1-14.5ZM338.6,346.9c5.5-2.2,11-4.6,16.3-7.1l1.6,3.2c-5.4,2.6-10.9,5.1-16.6,7.2l-1.3-3.4ZM411.9,298.1l2.6,2.5c-4.1,4.3-8.5,8.6-13,12.6l-2.4-2.7c4.5-3.9,8.8-8.1,12.8-12.3ZM370.5,331.3c5-3,9.9-6.2,14.5-9.6l.3-.2,2.1,2.9-.3.2c-4.7,3.4-9.7,6.7-14.8,9.8l-1.8-3.1Z"/>
              <path class="cls-10" d="M239,178.5l3.5.9c-.7,2.8-1.4,5.8-2.1,8.8l-3.6-.7c.7-3,1.4-6,2.1-8.9Z"/>
            </g>
            <g>
              <path class="cls-8" d="M237.4,243.5c0,4.3-8.2,7.8-18.3,7.8s-18.3-3.5-18.3-7.8,8.2-7.8,18.3-7.8,18.3,3.5,18.3,7.8Z"/>
              <path class="cls-13" d="M219.1,197.7c-9,0-16.3,7.3-16.3,16.3s16.3,31.2,16.3,31.2c0,0,16.3-22.2,16.3-31.2s-7.3-16.3-16.3-16.3ZM219.1,223.2c-4.9,0-8.8-4-8.8-8.8s4-8.8,8.8-8.8,8.8,4,8.8,8.8-4,8.8-8.8,8.8Z"/>
              <circle class="cls-11" cx="219" cy="214.3" r="12.1"/>
              <g>
                <g id="Grupo_6" data-name="Grupo 6" class="cls-14">
                  <rect id="Rectángulo_4" data-name="Rectángulo 4" class="cls-1" x="211" y="208" width="16.3" height="3.2"/>
                </g>
                <g id="Grupo_7" data-name="Grupo 7" class="cls-19">
                  <rect id="Rectángulo_5" data-name="Rectángulo 5" class="cls-1" x="213" y="212.6" width="12.2" height="3.2"/>
                </g>
                <g id="Grupo_8" data-name="Grupo 8">
                  <rect id="Rectángulo_6" data-name="Rectángulo 6" class="cls-1" x="217.6" y="217.3" width="3" height="3.2"/>
                </g>
              </g>
            </g>
            <g>
              <path class="cls-6" d="M206,519.5h74.1c.5-17.6,2-53.5,6.1-58.6,5.4-6.7,3.5-12.1,2.2-14.6-1.3-2.5-1.5-11.7,1.3-17.6,2.9-6.5,5.3-13.4,7.3-20,5.2-15,7.2-30.8,7.4-34,0,0,0-.1,0-.2,0,0,0,0,0,0,0,0,0,0,0-.1,0,0,0,0,0-.1-.2-2.1,0-13.2-4.3-15.8-2.7-1.7-6.3-3.3-10.4-3.1-2.3,0-5,1.6-7.8,2.4-.9-3-1.2-6.7-3.2-8.3-3.8-3-10.3-4.4-14.9-4-4,.4-7.4,3.9-9.2,5.3-.6-3-2.4-7.9-4.7-9.7-2.6-2.1-12.7-2.5-17-2.7-5.5-.2-8.2,5.4-9.5,9.7-.1-4.4-.2-8.4,0-10,.6-4.2.9-8-.5-13.1-1.4-5.1-1.4-22.9-.9-25.1.5-2.1-1.9-9.6-2.2-13.1-.3-3.5,9.9-8.8.1-8.8,0,0,4.6-6.8.4-5.3,0,0-.1,0-.4,0-.8-1.1-2-2.7-2-2.7-1.9.1-3.6.8-5.1,1.9-2-.2-3.6-.4-3.6-.4,0,0,1.4.3,3.3.6-5.5,4.5-7.3,14.8-7.5,17.5-.1,3.5-2.1,11.1-1.4,13.2.6,2.1-5.2,14.6-6,22.2-.5,5.2-.9,10.2,0,14.4.3,1.5-.1,10.1-.8,20.6-5.6,1.9-11.4,4.4-12.8,6-2.6,2.9-.2,33.3,5.5,47.6,5.8,14.4,15.7,21.1,17.2,30.4,1.3,8.2-.2,62.9-.6,75.5Z"/>
              <g>
                <path class="cls-2" d="M211.5,519.5h70.8c-.7-14.2-.6-28,1.6-31.3,5.1-7.5,3.5-13.6,2.4-16.6-1.1-2.9-1.1-13.4,1.6-20,10.1-26.7,14.8-59.2,14.7-61.6-.1-2.4.3-15.1-3.5-18.1-2.4-2-5.6-4-9.3-3.9-2,0-4.6,1.6-7.1,2.4-.7-3.4-.9-7.7-2.7-9.6-3.3-3.6-9.1-5.4-13.3-5-3.6.3-6.8,4.2-8.5,5.7-.4-3.5-2-9.1-4-11.3-2.3-2.4-11.4-3.3-15.3-3.6-8-.7-9.9,16.2-9.9,16.2,0,0-9.8,4.2-13.3,4.2s-19.2,6.1-21.6,9.3c-2.4,3.2-1.1,37.9,3.7,54.5,4.8,16.6,13.6,24.6,14.7,35.3.6,5.7-.2,31.1-1.1,53.2Z"/>
                <path class="cls-12" d="M219.2,519.5h57.6c0-11.9.7-22.9,2.8-26,5.1-7.5,7.8-18.9,6.8-21.9-1.1-2.9-9.3-10.5-4.4-15.8,15.2-16.3,20.8-63.4,20.6-65.8-.1-2.4.3-15.1-3.5-18.1-2.4-2-5.6-4-9.3-3.9-2,0-4.6,1.6-7.1,2.4-.7-3.4-.9-7.7-2.7-9.6-3.3-3.6-9.1-5.4-13.3-5-3.6.3-6.8,4.2-8.5,5.7-.4-3.5-2-9.1-4-11.3-2.3-2.4-11.4-3.3-15.3-3.6-8-.7-9.9,16.2-9.9,16.2,0,0-9.3,12.2-12.7,12.2s-14.3,5.2-16.7,8.4c-2.4,3.2-5.5,26.6-.7,43.1,4.8,16.6,18.6,34.5,19.6,45.1.6,5.5.7,27.6.7,47.6Z"/>
                <path class="cls-2" d="M278.7,382.8c-2.3-1.1-4.7-6.6-10.8-8.8-6-2.2-11.2,2-14.3,1.9-4.8-.2-3.7-5.3-13.2-7.1-9.4-1.8-13.8,7.2-19.4,1.3-2,.5-3.1-2.1-4.8-2.9,3.8-.3,12.8-4.2,12.8-4.2,0,0,2-16.9,9.9-16.2,3.9.3,13,1.2,15.3,3.6,2,2.1,3.5,7.8,4,11.3,1.7-1.6,4.9-5.4,8.5-5.7,4.2-.4,10,1.4,13.3,5,1.7,1.9,1.9,6.2,2.7,9.6,2.6-.8,5.1-2.4,7.1-2.4,3.7,0,6.9,1.9,9.3,3.9,3.7,3.1,3.3,15.7,3.5,18.1,0,.4,0,1.6-.3,3.3-.7-2.8-1.4-6.8-8.2-10.2-6.4-3-13,.8-15.4-.4Z"/>
                <path class="cls-2" d="M207.6,330.3c.9-8.7,1.6-25.3,1.1-27.7-.5-2.4,1.4-11,1.7-15,.2-4,.2-17.6,9-17.9,0,0,0,0,0,0,0,0,0,0,0,0,0,0,0,0,0,0,0,0,0,0,0,0,8.8.3,8.8,13.9,9,17.9.2,4,2.2,12.6,1.7,15-.5,2.4-1,22.7.1,28.6,1.1,5.9.8,10.1.1,15-.6,4.8,0,30.4,0,30.4l-8.9,26.9-20,18.2s6.2-70.1,5.5-74.9c-.6-4.8-.2-10.5.4-16.4Z"/>
                <path class="cls-12" d="M211.8,330.3c1.1-5.9-.6-25-1.1-27.4-.5-2.4,1.7-10.6,1.9-14.6.2-4-2-18.4,6.8-18.7,0,0,0,0,0,0,0,0,0,0,0,0,0,0,0,0,0,0,0,0,0,0,0,0,8.8.3,8.8,13.9,9,17.9.2,4,2.2,12.6,1.7,15-.5,2.4-1,22.7.1,28.6,1.1,5.9.8,10.1.1,15-.6,4.8,0,30.4,0,30.4l-8.9,26.9-20.6,21s10.5-54.4,9.9-77.7c-.1-4.8-.3-10.5.8-16.4Z"/>
                <path class="cls-5" d="M224.7,285.8s-5.7-1.4-10,0c-1.8,0-1.1-7.4-.9-9.3.2-1.9.3-3.8,1.7-4.4,1.1-.5,6.2-1.6,9.2.8,1.2.9,1.3,5.3,1.3,8s0,5.1-1.3,4.8Z"/>
              </g>
            </g>
          </g>
        </g>
      </g>
      <path class="cls-10" d="M417.7,108.9c4.6,3.8,8.9,8,12.9,12.5l-2.7,2.4c-3.8-4.3-8-8.4-12.5-12.1l2.4-2.8ZM438.2,137.6l3.1-2c1.9,2.9,3.6,6,5.2,9.1,1.1,2.2,2.2,4.5,3.2,6.7l-3.3,1.5c-.9-2.2-2-4.4-3.1-6.5-1.5-3-3.2-6-5.1-8.8ZM451.8,169.4l3.5-.9c1.4,5.7,2.3,11.7,2.8,17.7l-3.6.3c-.5-5.8-1.4-11.6-2.7-17.2ZM454.6,204.1l3.6.2c-.4,5.9-1.2,11.9-2.5,17.8l-3.6-.7c1.2-5.8,2-11.6,2.4-17.4ZM447.5,238.4l3.4,1.1c-1.9,5.6-4.2,11.2-6.8,16.7l-3.3-1.5c2.6-5.3,4.8-10.8,6.7-16.3Z"/>
    </g>
  </g>
</svg>