<?xml version="1.0" encoding="UTF-8"?>
<svg id="Capa_1" data-name="Capa 1" xmlns="http://www.w3.org/2000/svg" version="1.1" viewBox="0 0 214.1 42.5">
  <defs>
    <style>
      .cls-1 {
        opacity: .7;
      }

      .cls-2 {
        fill: #f7931d;
      }

      .cls-2, .cls-3, .cls-4 {
        stroke-width: 0px;
      }

      .cls-3 {
        fill: #000;
      }

      .cls-5 {
        opacity: .5;
      }

      .cls-4 {
        fill: #f29221;
      }
    </style>
  </defs>
  <path class="cls-4" d="M7.4,34.4c-.8,0-1.5-.7-1.5-1.5v-.3c0-9.9,8.1-18,18-18s18,8.1,18,18c-1,2.3-.7,1.5-1.5,1.5s-1.5-.7-1.5-1.5c0-8.3-6.7-15-15-15s-15,6.7-15,15v.3c0,.8-.6,1.5-1.5,1.5h0Z"/>
  <path class="cls-4" d="M24.2,36.9c-1.6,0-2.9-.4-4.7-2.1,0,0-.1-.2-.2-.2-.3-.4-.9-.5-1.3-.2,0,0-.2,0-.2.2,0,0-.1.2-.2.2-3.6,3.4-6.3,3.4-10,0l-.2-.2c0-.2-.3-.3-.6-.3s-.4,0-.6.2l-.2.2s0,.2-.2.2c-.2.2-.4.4-.6.6-.4.4-.8.8-1.2,1.2-1,.9-2.5.9-3.5,0-.6-.6-.6-1.5,0-2.1.5-.5,1.2-.6,1.7-.3.3-.2.5-.5.8-.8.2-.2.4-.4.6-.6.2-.3.5-.6.8-.8.8-.6,1.8-.9,2.9-.7,1,.1,1.8.6,2.4,1.4,2.5,2.3,3.3,2.3,5.7,0,.3-.3.6-.6.9-.9,1.7-1.2,4.1-.8,5.3.9,2.2,2.1,3.2,2.1,5.5,0l.9-.9c1.8-1.2,4.2-.8,5.4.9.5.5,1,1,1.7,1.3,1.3.4,2.8,0,3.6-1.1h0c.8-.9,1.8-1.8,3.2-1.8h0c1.3,0,2.4.9,3.2,1.6l.6.6c.3.3.6.7,1,.9.6.5.7,1.5.2,2.1s-1.5.7-2.1.2l-1.2-1.2c-.2-.2-.4-.4-.5-.6-.8-.8-1.1-.8-1.1-.8h0s-.3,0-1,.7c-1.7,2.1-4.5,3-7,2h0c-1.1-.5-2-1.3-2.8-2.2h0c-.3-.5-.9-.6-1.3-.3,0,0-.2,0-.2.2,0,0-.1.2-.2.2-1.8,1.7-3.4,2.5-4.9,2.5h-.4v-.2ZM2,34.4h0Z"/>
  <g>
    <path class="cls-3" d="M59.5,36.3c-1.4,0-2.7-.2-4.1-.7s-2.5-1.1-3.4-1.9l1.8-3c1,.7,1.9,1.2,2.9,1.6.9.4,1.8.6,2.7.6s1.1,0,1.5-.3.5-.6.5-1-.2-.8-.7-1c-.4-.3-1.2-.5-2.3-.8s-2-.6-2.8-.9-1.4-.6-1.8-1c-.5-.3-.8-.8-1-1.2s-.3-1-.3-1.6.2-1.6.5-2.3.8-1.3,1.4-1.7c.6-.5,1.3-.8,2.1-1.1.8-.3,1.7-.4,2.6-.4s2.3.2,3.4.5,2.1.9,3.1,1.8l-1.9,3c-.9-.6-1.7-1.1-2.5-1.4-.7-.3-1.4-.4-2.1-.4s-1,.1-1.4.3-.6.6-.6,1,.2.8.6,1c.4.2,1.1.5,2.2.7,1.2.3,2.1.6,2.9.9.8.3,1.4.7,1.9,1,.5.4.9.8,1.1,1.3s.3,1.1.3,1.8c0,1.6-.6,2.9-1.8,3.8s-2.8,1.4-4.8,1.4Z"/>
    <path class="cls-3" d="M73.1,36.3c-.8,0-1.5,0-2.2-.4-.7-.3-1.3-.6-1.8-1.1s-.9-1-1.2-1.6c-.3-.6-.4-1.3-.4-2.1s.2-1.5.5-2.2.8-1.2,1.4-1.7,1.3-.8,2.2-1.1c.8-.3,1.8-.4,2.8-.4s1.3,0,2,.2,1.2.3,1.7.5v-.7c0-1.9-1.1-2.8-3.2-2.8s-1.7.1-2.5.4-1.6.7-2.5,1.3l-1.4-3.1c1.1-.7,2.2-1.2,3.3-1.6,1.2-.3,2.4-.5,3.7-.5,2.4,0,4.3.6,5.7,1.7s2,2.8,2,5.1v4.2c0,.5,0,.8.2,1s.4.3.8.4v4.2c-.4,0-.8.2-1.2.2h-1c-.9,0-1.6-.2-2.1-.5s-.8-.9-.9-1.5v-.7c-.8.9-1.7,1.6-2.7,2.1s-2.1.7-3.2.7ZM74.5,32.8c.5,0,1.1,0,1.6-.3.5-.2.9-.4,1.2-.7.5-.4.7-.8.7-1.2v-1.5c-.4-.2-.9-.3-1.4-.4-.5,0-1-.1-1.4-.1-.9,0-1.7.2-2.2.6s-.9.9-.9,1.6.2,1.1.7,1.5c.5.4,1,.6,1.7.6h0Z"/>
    <path class="cls-3" d="M86.6,18v-4.5h4.9v4.5h-4.9ZM86.6,36v-16.2h4.9v16.2h-4.9Z"/>
    <path class="cls-3" d="M94.7,13.5h4.9v16.7c0,1.2.5,1.8,1.6,1.8s.5,0,.8-.1c.3,0,.6-.2.8-.3l.6,3.7c-.6.3-1.3.5-2.1.7-.8.2-1.6.2-2.3.2-1.4,0-2.5-.4-3.3-1.1s-1.1-1.8-1.1-3.2V13.5h0Z"/>
    <path class="cls-3" d="M112.9,36.3c-1.4,0-2.6-.2-3.7-.7s-2-1.1-2.7-1.8c-.7-.8-1.3-1.7-1.7-2.7-.4-1-.6-2.1-.6-3.2s.2-2.2.6-3.2.9-1.9,1.7-2.7c.7-.8,1.7-1.4,2.7-1.9,1.1-.5,2.3-.7,3.7-.7s2.6.2,3.7.7,2,1.1,2.7,1.9,1.3,1.7,1.7,2.7c.4,1,.6,2.1.6,3.2s-.2,2.2-.6,3.2-.9,1.9-1.7,2.7c-.7.8-1.6,1.4-2.7,1.8-1.1.5-2.3.7-3.7.7ZM109.2,28c0,1.3.3,2.3,1,3.1.7.8,1.5,1.2,2.6,1.2s1,0,1.4-.3.8-.5,1.1-.9c.3-.4.6-.8.8-1.3.2-.5.3-1.1.3-1.7,0-1.3-.3-2.3-1-3.1-.7-.8-1.5-1.2-2.6-1.2s-1,.1-1.4.3c-.4.2-.8.5-1.1.9-.3.4-.6.8-.8,1.3-.2.5-.3,1.1-.3,1.7Z"/>
    <path class="cls-3" d="M134.2,24.1c-1.2,0-2.3.2-3.2.6-1,.4-1.7.9-2.1,1.7v9.7h-4.9v-16.2h4.5v3.3c.6-1.1,1.3-1.9,2.1-2.6.9-.6,1.8-.9,2.8-1h.8v4.4h0Z"/>
    <path class="cls-3" d="M142.7,36.3c-1.4,0-2.7-.2-4.1-.7s-2.5-1.1-3.4-1.9l1.8-3c1,.7,1.9,1.2,2.9,1.6.9.4,1.8.6,2.7.6s1.1,0,1.5-.3.5-.6.5-1-.2-.8-.7-1c-.4-.3-1.2-.5-2.3-.8s-2-.6-2.8-.9-1.4-.6-1.8-1c-.5-.3-.8-.8-1-1.2s-.3-1-.3-1.6.2-1.6.5-2.3.8-1.3,1.4-1.7c.6-.5,1.3-.8,2.1-1.1.8-.3,1.7-.4,2.6-.4s2.3.2,3.4.5,2.1.9,3.1,1.8l-1.9,3c-.9-.6-1.7-1.1-2.5-1.4-.7-.3-1.4-.4-2.1-.4s-1,.1-1.4.3-.6.6-.6,1,.2.8.6,1c.4.2,1.1.5,2.2.7,1.2.3,2.1.6,2.9.9.8.3,1.4.7,1.9,1,.5.4.9.8,1.1,1.3.2.5.3,1.1.3,1.8,0,1.6-.6,2.9-1.8,3.8s-2.8,1.4-4.8,1.4h0Z"/>
    <path class="cls-3" d="M163.4,36.3c-.8,0-1.5,0-2.2-.4-.7-.3-1.3-.6-1.8-1.1s-.9-1-1.2-1.6-.4-1.3-.4-2.1.2-1.5.5-2.2.8-1.2,1.4-1.7c.6-.5,1.3-.8,2.2-1.1.8-.3,1.8-.4,2.8-.4s1.3,0,2,.2,1.2.3,1.7.5v-.7c0-1.9-1.1-2.8-3.2-2.8s-1.7.1-2.5.4-1.6.7-2.5,1.3l-1.4-3.1c1.1-.7,2.2-1.2,3.3-1.6,1.2-.3,2.4-.5,3.7-.5,2.4,0,4.3.6,5.7,1.7s2,2.8,2,5.1v4.2c0,.5,0,.8.2,1s.4.3.8.4v4.2c-.4,0-.8.2-1.2.2h-1c-.9,0-1.6-.2-2.1-.5s-.8-.9-.9-1.5v-.7c-.8.9-1.7,1.6-2.7,2.1s-2.1.7-3.2.7h0ZM164.9,32.8c.5,0,1.1,0,1.6-.3.5-.2.9-.4,1.2-.7.5-.4.7-.8.7-1.2v-1.5c-.4-.2-.9-.3-1.4-.4-.5,0-1-.1-1.4-.1-.9,0-1.7.2-2.2.6s-.9.9-.9,1.6.2,1.1.7,1.5c.5.4,1,.6,1.7.6h0Z"/>
    <path class="cls-3" d="M187.2,36.3c-1.2,0-2.3-.3-3.2-.8s-1.6-1.2-2.1-2.2v9.2h-4.9v-22.8h4.3v2.6c.6-.9,1.3-1.6,2.2-2.2.9-.5,2-.8,3.2-.8s2.1.2,3,.6,1.7,1,2.4,1.8,1.2,1.6,1.6,2.7c.4,1,.6,2.1.6,3.3s-.2,2.3-.5,3.4c-.4,1-.8,1.9-1.4,2.7-.6.8-1.4,1.3-2.2,1.8s-1.8.6-2.8.6h-.2ZM185.6,32.2c.5,0,1,0,1.5-.4s.8-.5,1.2-.9c.3-.4.6-.8.8-1.4.2-.5.3-1.1.3-1.6s0-1.1-.3-1.7c-.2-.5-.5-.9-.8-1.3s-.8-.7-1.2-.9-1-.3-1.6-.3-1.3.2-2,.6c-.6.4-1.1.9-1.4,1.6v3.3c.3.8.8,1.5,1.5,2.1s1.4.8,2.1.8h-.1Z"/>
    <path class="cls-3" d="M206.9,36.3c-1.2,0-2.3-.3-3.2-.8s-1.6-1.2-2.1-2.2v9.2h-4.9v-22.8h4.3v2.6c.6-.9,1.3-1.6,2.2-2.2.9-.5,2-.8,3.2-.8s2.1.2,3,.6,1.7,1,2.4,1.8,1.2,1.6,1.6,2.7c.4,1,.6,2.1.6,3.3s-.2,2.3-.5,3.4c-.4,1-.8,1.9-1.4,2.7-.6.8-1.4,1.3-2.2,1.8s-1.8.6-2.8.6h-.2ZM205.2,32.2c.5,0,1,0,1.5-.4s.8-.5,1.2-.9c.3-.4.6-.8.8-1.4.2-.5.3-1.1.3-1.6s0-1.1-.3-1.7c-.2-.5-.5-.9-.8-1.3s-.8-.7-1.2-.9-1-.3-1.6-.3-1.3.2-2,.6c-.6.4-1.1.9-1.4,1.6v3.3c.3.8.8,1.5,1.5,2.1s1.4.8,2.1.8h-.1Z"/>
  </g>
  <g id="Grupo_6" data-name="Grupo 6" class="cls-5">
    <rect id="Rectángulo_4" data-name="Rectángulo 4" class="cls-2" x="16.5" y="0" width="16.3" height="3.2"/>
  </g>
  <g id="Grupo_7" data-name="Grupo 7" class="cls-1">
    <rect id="Rectángulo_5" data-name="Rectángulo 5" class="cls-2" x="18.5" y="4.6" width="12.2" height="3.2"/>
  </g>
  <g id="Grupo_8" data-name="Grupo 8">
    <rect id="Rectángulo_6" data-name="Rectángulo 6" class="cls-2" x="23.2" y="9.2" width="3" height="3.2"/>
  </g>
</svg>