<?xml version="1.0" encoding="UTF-8"?>
<svg id="Capa_1" data-name="Capa 1" xmlns="http://www.w3.org/2000/svg" version="1.1" viewBox="0 0 45 45">
  <defs>
    <style>
      .cls-1 {
        opacity: .5;
      }

      .cls-2 {
        opacity: .7;
      }

      .cls-3 {
        fill: #d8d8d8;
        stroke-width: 0px;
      }
    </style>
  </defs>
  <path class="cls-3" d="M40.4,35.2c-.3-.2-.6-.5-.8-.7l-.5-.5c-.7-.6-1.6-1.3-2.6-1.3s0,0,0,0c-.6-7.5-7-13.5-14.6-13.5s-14.1,6.1-14.6,13.6c-.5,0-.9.3-1.3.6-.2.2-.5.4-.7.7-.2.2-.3.3-.5.5s-.4.5-.7.7c-.4-.2-1-.2-1.4.2s-.5,1.2,0,1.7c.8.8,2,.8,2.9,0,.3-.3.7-.7,1-1l.5-.5.2-.2.2-.2c.2-.2.3-.2.5-.2s.4,0,.5.2l.2.2c3,2.8,5.2,2.8,8.2,0l.2-.2.2-.2c.3-.2.8-.2,1.1.2l.2.2c1.5,1.4,2.5,1.7,3.8,1.7h.3c1.2,0,2.5-.6,4-2l.2-.2.2-.2c.3-.2.8-.2,1.1.2h0c.7.8,1.4,1.5,2.3,1.9h0c2,.8,4.3,0,5.7-1.6.6-.6.8-.6.8-.6,0,0,.2,0,.9.7,0,.2.2.3.4.5l1,1c.5.4,1.3.3,1.7-.2s.3-1.3-.2-1.7l-.3.2ZM33.8,34.1c-.7.9-1.9,1.2-2.9.9-.6-.2-1-.7-1.4-1.1-1-1.4-2.9-1.7-4.4-.7l-.7.7c-1.9,1.7-2.7,1.7-4.5,0-1-1.4-2.9-1.7-4.3-.7-.2.2-.5.5-.7.7-2,1.9-2.6,1.9-4.7,0-.2-.2-.4-.4-.6-.6.3-6.5,5.6-11.7,12.2-11.7s12.2,5.5,12.2,12.2,0,0,0,0h0l-.2.3Z"/>
  <g id="Grupo_6" data-name="Grupo 6" class="cls-1">
    <rect id="Rectángulo_4" data-name="Rectángulo 4" class="cls-3" x="15.7" y="7.2" width="13.3" height="2.6"/>
  </g>
  <g id="Grupo_7" data-name="Grupo 7" class="cls-2">
    <rect id="Rectángulo_5" data-name="Rectángulo 5" class="cls-3" x="17.3" y="11" width="10" height="2.6"/>
  </g>
  <g id="Grupo_8" data-name="Grupo 8">
    <rect id="Rectángulo_6" data-name="Rectángulo 6" class="cls-3" x="21.1" y="14.8" width="2.4" height="2.6"/>
  </g>
</svg>