<?xml version="1.0" encoding="UTF-8"?>
<svg id="Capa_1" data-name="Capa 1" xmlns="http://www.w3.org/2000/svg" version="1.1" viewBox="0 0 45 45">
  <defs>
    <style>
      .cls-1 {
        fill: #e52a46;
        stroke-width: 0px;
      }
    </style>
  </defs>
  <path class="cls-1" d="M17.9,43.6c-5,0-9.1-4.1-9.1-9.1s.6-3.7,1.7-5.2V8.6c0-4,3.2-7.2,7.2-7.2s7.2,3.2,7.2,7.2v20.1c1.3,1.6,2.1,3.7,2.1,5.8,0,5-4.1,9.1-9.1,9.1ZM17.7,3.1c-3,0-5.5,2.5-5.5,5.5v20.9c0,.2,0,.4-.2.5-1,1.3-1.5,2.8-1.5,4.4,0,4.1,3.3,7.4,7.4,7.4s7.4-3.3,7.4-7.4-.7-3.5-1.9-4.9c-.1-.2-.2-.4-.2-.6V8.6c0-3-2.5-5.5-5.5-5.5Z"/>
  <path class="cls-1" d="M17.7,35.4c-.5,0-.9-.4-.9-.8V10.1c0-.5.4-.9.9-.9s.9.4.9.9v24.5c0,.5-.4.8-.9.8Z"/>
  <circle class="cls-1" cx="17.7" cy="34.5" r="2.4"/>
  <path class="cls-1" d="M34.4,11.5h-5.4c-.5,0-.8-.4-.8-.9s.4-.9.8-.9h5.4c.5,0,.8.4.8.9s-.4.9-.8.9Z"/>
  <path class="cls-1" d="M34.4,17.7h-5.4c-.5,0-.8-.4-.8-.9s.4-.9.8-.9h5.4c.5,0,.8.4.8.9s-.4.9-.8.9Z"/>
  <path class="cls-1" d="M34.4,24.3h-5.4c-.5,0-.8-.4-.8-.9s.4-.9.8-.9h5.4c.5,0,.8.4.8.9s-.4.9-.8.9Z"/>
</svg>