<?xml version="1.0" encoding="UTF-8"?>
<svg id="Capa_1" data-name="Capa 1" xmlns="http://www.w3.org/2000/svg" version="1.1" viewBox="0 0 45 45">
  <defs>
    <style>
      .cls-1 {
        fill: #494647;
        stroke-width: 0px;
      }
    </style>
  </defs>
  <path class="cls-1" d="M34,32.3c-.3-.6-.9-1-1.5-1h-.4l.4-.6c.3-.5.4-1.1,0-1.6-.3-.6-.9-.9-1.5-.9s-1.1,0-1.6,0c-.9,0-1.7,0-2.6,0-.3,0-.5,0-.8,0-.9,0-1.4.6-1.7,1.1,0,.1-.1.2-.2.4l-2.9,4.9c-.2.3-.2.6-.2.9,0,.9.8,1.6,1.7,1.6h.6l-2.7,5.5c-.3.4-.3,1,0,1.5.2.5.7.9,1.2,1,.1,0,.2,0,.4,0,.5,0,1-.2,1.2-.6l8.3-8.4,1.8-1.8c.5-.5.6-1.2.3-1.8ZM22.3,43.2s0,0,0,0c0,0,0,0,0,0,0,0,0,0,0,0h0ZM22.3,43.1l3.2-6.6c.1-.3.1-.6,0-.8-.2-.2-.4-.4-.7-.4h-2c0,0,2.8-4.7,2.8-4.7v-.2c.2,0,.2-.2.3-.3.2-.3.2-.3.3-.3.2,0,.5,0,.7,0,.8,0,1.7,0,2.5,0,.5,0,1.1,0,1.6,0l-1.2,1.8c-.2.3-.2.6,0,.9.1.3.4.4.8.4h1.9c0,0-10.1,10.1-10.1,10.1Z"/>
  <path class="cls-1" d="M37.2,23c-.8-1.9-2.1-3.5-3.8-4.5,0,0,0,0,0,0-.6-5.7-5.3-9.9-11.1-9.9s-11.1,5-11.1,11.1.4,3.3,1.1,4.8c0,0,0,.1.1.2-.7,1.2-1.2,2.7-1.2,4.2,0,4.5,3.7,8.2,8.2,8.2s.9-.4.9-.8-.4-.8-.9-.8c-3.6,0-6.5-2.9-6.5-6.5s2.9-6.5,6.5-6.5c.1,0,.6,0,.8.1.3,0,.5.1.7.1.3,0,.6,0,.8-.3l.3-.4c1.5-2,3.8-3.1,6.3-3.1s6.3,2.1,7.4,5.2c0,.1.1.3.3.4l.2.2c0,0,.2.1.2.1,2.1.7,3.3,2.6,3.3,5s-2.4,5.4-5.4,5.4-.8.4-.8.8.4.8.8.8c3.9,0,7.1-3.2,7.1-7.1s-1.6-5.5-4.3-6.5ZM20.7,20.8s0,0,0,0c-.6-.1-.9-.2-1.2-.2-2.3,0-4.4.9-5.9,2.5-.4-1.1-.7-2.3-.7-3.5,0-5.2,4.2-9.4,9.4-9.4s8.3,3.1,9.2,7.4c-1-.4-2.1-.6-3.2-.6-3,0-5.8,1.4-7.6,3.8Z"/>
  <path class="cls-1" d="M9.5,18.7h-5.2c-.5,0-.9.4-.9.9s.4.9.9.9h5.2c.5,0,.9-.4.9-.9s-.4-.9-.9-.9Z"/>
  <path class="cls-1" d="M33.2,14c.1,0,.3,0,.4-.1l4.5-2.6c.4-.2.5-.8.3-1.2-.2-.4-.8-.5-1.2-.3l-4.5,2.6c-.4.2-.5.8-.3,1.2.2.3.4.4.7.4Z"/>
  <path class="cls-1" d="M28.2,9.3c.1,0,.3.1.4.1.3,0,.6-.2.7-.4l2.6-4.5c.2-.4,0-.9-.3-1.2-.4-.2-.9,0-1.2.3l-2.6,4.5c-.2.4,0,.9.3,1.2Z"/>
  <path class="cls-1" d="M22.3,7.7c.5,0,.9-.4.9-.9V1.6c0-.5-.4-.9-.9-.9s-.9.4-.9.9v5.2c0,.5.4.9.9.9Z"/>
  <path class="cls-1" d="M15.1,9c.2.3.4.4.7.4s.3,0,.4-.1c.4-.2.5-.8.3-1.2l-2.6-4.5c-.2-.4-.8-.5-1.2-.3-.4.2-.5.8-.3,1.2l2.6,4.5Z"/>
  <path class="cls-1" d="M12,13.6c.2-.4,0-.9-.3-1.2l-4.5-2.6c-.4-.2-.9,0-1.2.3-.2.4,0,.9.3,1.2l4.5,2.6c.1,0,.3.1.4.1.3,0,.6-.2.7-.4Z"/>
</svg>