<?xml version="1.0" encoding="UTF-8"?>
<svg id="Capa_1" data-name="Capa 1" xmlns="http://www.w3.org/2000/svg" version="1.1" viewBox="0 0 45 45">
  <defs>
    <style>
      .cls-1 {
        fill: #494647;
        stroke-width: 0px;
      }
    </style>
  </defs>
  <path class="cls-1" d="M13.4,37.1c-.2,0-.3,0-.5,0-.7-.1-1.4-.7-1.8-1.4-.3-.7-.3-1.4.1-2l5.4-10.9h-2.3c-1.3,0-2.3-1-2.3-2.2,0-.4,0-.9.3-1.2l5-8.6c0-.1.1-.2.2-.4.1-.2.2-.4.4-.6.4-.7,1.1-1.5,2.5-1.6.5,0,.9,0,1.4,0,1.5,0,3.1,0,4.7,0,1,0,2,0,2.9,0s1.6.5,2.1,1.3c.4.7.4,1.6,0,2.3l-1.5,2.2h1.9c.9,0,1.7.5,2.1,1.4.4.9.2,1.9-.5,2.5l-18.3,18.5c-.4.6-1,.9-1.7.9ZM18,20.9c.3,0,.6.2.7.4.2.2.2.6,0,.8l-6,12.2s0,0,0,0c0,0-.1.2,0,.5.1.2.3.4.5.5.2,0,.4,0,.5-.2,0,0,0-.1.1-.2l15.1-15.3h0l3.3-3.3c.3-.3.1-.6.1-.7,0,0-.2-.4-.5-.4h-3.5c-.3,0-.6-.2-.8-.4s-.1-.6,0-.9l2.4-3.5c.1-.2,0-.4,0-.5,0-.2-.3-.4-.6-.4-1,0-2,0-3,0-1.5,0-3.1,0-4.6,0-.4,0-.9,0-1.3,0-.5,0-.7.2-1.1.8-.1.2-.2.4-.3.6,0,.1-.1.3-.2.4l-5,8.6c0,0,0,.2,0,.3,0,.3.3.6.6.6h3.6Z"/>
</svg>