<?xml version="1.0" encoding="UTF-8"?>
<svg id="Capa_1" data-name="Capa 1" xmlns="http://www.w3.org/2000/svg" version="1.1" viewBox="0 0 45 45">
  <defs>
    <style>
      .cls-1 {
        fill: #1dc3f7;
        stroke-width: 0px;
      }
    </style>
  </defs>
  <path class="cls-1" d="M23.1,35.2c-1.3,0-2.6-.7-4-2.1,0,0,0,0-.1-.1-.2-.3-.5-.5-.8-.6-.3,0-.7,0-1,.2-.1,0-.2.2-.3.3,0,0,0,0-.1.1-3,2.9-5.1,2.8-8.2,0,0,0,0,0-.1-.1-.4-.6-1.2-.7-1.7-.3-.1,0-.2.2-.3.3,0,0,0,0-.1.1-.2.2-.4.4-.6.6-.3.4-.7.7-1.1,1-.7.6-1.8.6-2.4,0-.3-.3-.3-.9,0-1.2.3-.3.9-.3,1.2,0,.4-.3.7-.6,1-1,.2-.2.4-.4.6-.6.2-.3.4-.5.6-.7,1.3-.9,3.1-.7,4.1.6,2.4,2.2,3.5,2.3,5.8,0,.2-.3.4-.5.7-.7.7-.5,1.5-.6,2.3-.5.8.1,1.4.6,1.9,1.2,2.2,2.1,3.4,2.1,5.7,0,.2-.3.4-.5.7-.7,1.4-.9,3.2-.6,4.2.8.4.5,1,1,1.7,1.3,1.3.5,2.9,0,3.8-1.2.7-.7,1.5-1.4,2.5-1.5,1.1,0,1.9.7,2.5,1.3.2.2.4.4.5.5.3.3.6.6.9.9.4.3.4.8.1,1.2-.3.4-.8.4-1.2.1-.4-.3-.7-.7-1-1-.2-.2-.3-.3-.5-.5-.6-.6-1-.8-1.3-.8h0c-.3,0-.7.3-1.3.9-1.3,1.7-3.6,2.4-5.7,1.6-1-.5-1.8-1.1-2.4-1.9-.5-.7-1.3-.8-1.9-.4-.1,0-.2.2-.3.3,0,0,0,0-.1.1-1.5,1.4-2.8,2.1-4.1,2.1Z"/>
  <path class="cls-1" d="M23.1,24.8c-1.3,0-2.6-.7-4-2.1,0,0,0,0-.1-.1-.2-.3-.5-.5-.8-.6-.3,0-.7,0-1,.2-.1,0-.2.2-.3.3,0,0,0,0-.1.1-3,2.9-5.1,2.8-8.2,0,0,0,0,0-.1-.1-.4-.6-1.2-.7-1.7-.3-.1,0-.2.2-.3.3,0,0,0,0-.1.1-.2.2-.4.4-.6.6-.3.4-.7.7-1.1,1-.7.6-1.8.6-2.4,0-.3-.3-.3-.9,0-1.2.3-.3.9-.3,1.2,0,.4-.3.7-.6,1-1,.2-.2.4-.4.6-.6.2-.3.4-.5.6-.7,1.3-.9,3.1-.7,4.1.6,2.4,2.2,3.5,2.3,5.8,0,.2-.3.4-.5.7-.7.7-.5,1.5-.6,2.3-.5.8.1,1.4.6,1.9,1.2,2.3,2.1,3.4,2.1,5.7,0,.2-.3.4-.5.7-.7.7-.5,1.5-.6,2.3-.5.8.1,1.5.6,1.9,1.3.4.5,1,1,1.7,1.3,1.3.5,2.9,0,3.8-1.2.7-.7,1.5-1.4,2.5-1.5,1.1,0,1.9.7,2.5,1.3.2.2.4.4.5.5.3.3.6.6.9.9.4.3.4.8.1,1.2-.3.4-.8.4-1.2.1-.4-.3-.7-.7-1-1-.2-.2-.3-.3-.5-.5-.6-.6-1-.8-1.3-.8h0c-.3,0-.7.3-1.3.9-1.3,1.7-3.6,2.4-5.7,1.6-1-.5-1.8-1.1-2.4-1.9-.5-.7-1.3-.8-1.9-.4-.1,0-.2.2-.3.3,0,0,0,0-.1.1-1.5,1.4-2.8,2.1-4.1,2.1Z"/>
  <path class="cls-1" d="M23.1,14.3c-1.3,0-2.6-.7-4-2.1,0,0,0,0-.1-.1-.2-.3-.5-.5-.8-.6-.3,0-.7,0-1,.2-.1,0-.2.2-.3.3,0,0,0,0-.1.1-3,2.9-5.1,2.8-8.2,0,0,0,0,0-.1-.1-.4-.6-1.2-.7-1.7-.3-.1,0-.2.2-.3.3,0,0,0,0-.1.1-.2.2-.4.4-.6.6-.3.4-.7.7-1.1,1-.7.6-1.8.6-2.4,0-.3-.3-.3-.9,0-1.2.3-.3.9-.3,1.2,0,.4-.3.7-.6,1-1,.2-.2.4-.4.6-.6.2-.3.4-.5.6-.7,1.3-.9,3.1-.7,4.1.6,2.4,2.2,3.5,2.3,5.8,0,.2-.3.4-.5.7-.7.7-.5,1.5-.6,2.3-.5.8.1,1.4.6,1.9,1.2,2.2,2.1,3.4,2.1,5.7,0,.2-.3.4-.5.7-.7,1.4-.9,3.2-.6,4.2.8.4.5,1,1,1.7,1.3,1.3.5,2.9,0,3.8-1.2.7-.7,1.5-1.4,2.5-1.5,1.1,0,1.9.7,2.5,1.3.2.2.4.4.5.5.3.3.6.6.9.9.4.3.4.8.1,1.2-.3.4-.8.4-1.2.1-.4-.3-.7-.7-1-1-.2-.2-.3-.3-.5-.5-.6-.6-1-.8-1.3-.8h0c-.3,0-.7.3-1.3.9-1.3,1.7-3.6,2.4-5.7,1.6-1-.5-1.8-1.1-2.4-1.9-.5-.7-1.3-.8-1.9-.4-.1,0-.2.2-.3.3,0,0,0,0-.1.1-1.5,1.4-2.8,2.1-4.1,2.1Z"/>
</svg>