<?xml version="1.0" encoding="UTF-8"?>
<svg id="Capa_1" data-name="Capa 1" xmlns="http://www.w3.org/2000/svg" version="1.1" viewBox="0 0 45 45">
  <defs>
    <style>
      .cls-1 {
        fill: #494647;
        stroke-width: 0px;
      }
    </style>
  </defs>
  <g>
    <path class="cls-1" d="M44.5,23.5h-6.4c-.5,0-.8-.4-.8-.9s.4-.9.8-.9h6.4c.5,0,.8.4.8.9s-.4.9-.8.9Z"/>
    <path class="cls-1" d="M6.9,23.5H.5c-.5,0-.8-.4-.8-.9s.4-.9.8-.9h6.4c.5,0,.8.4.8.9s-.4.9-.8.9Z"/>
  </g>
  <g>
    <path class="cls-1" d="M35.9,15.6c-.3,0-.6-.2-.7-.4-.2-.4-.1-.9.3-1.2l5.5-3.2c.4-.2.9-.1,1.2.3.2.4.1.9-.3,1.2l-5.5,3.2c-.1,0-.3.1-.4.1Z"/>
    <path class="cls-1" d="M3.5,34.6c-.3,0-.6-.2-.7-.4-.2-.4-.1-.9.3-1.2l5.5-3.2c.4-.2.9,0,1.2.3.2.4.1.9-.3,1.2l-5.5,3.2c-.1,0-.3.1-.4.1Z"/>
  </g>
  <path class="cls-1" d="M22.6,35.9c-7.4,0-13.4-6-13.4-13.4s6-13.4,13.4-13.4,13.4,6,13.4,13.4-6,13.4-13.4,13.4ZM22.6,10.8c-6.5,0-11.7,5.3-11.7,11.7s5.3,11.7,11.7,11.7,11.7-5.3,11.7-11.7-5.3-11.7-11.7-11.7Z"/>
  <g>
    <path class="cls-1" d="M30.3,9.8c-.1,0-.3,0-.4-.1-.4-.2-.5-.8-.3-1.2l3.2-5.6c.2-.4.8-.5,1.2-.3.4.2.5.8.3,1.2l-3.2,5.6c-.2.3-.4.4-.7.4Z"/>
    <path class="cls-1" d="M11.6,42.4c-.1,0-.3,0-.4-.1-.4-.2-.5-.8-.3-1.2l3.2-5.5c.2-.4.8-.5,1.2-.3.4.2.5.8.3,1.2l-3.2,5.5c-.2.3-.4.4-.7.4Z"/>
  </g>
  <g>
    <path class="cls-1" d="M22.6,7.8c-.5,0-.8-.4-.8-.9V.5c0-.5.4-.9.8-.9s.8.4.8.9v6.4c0,.5-.4.9-.8.9Z"/>
    <path class="cls-1" d="M22.6,45.3c-.5,0-.8-.4-.8-.9v-6.4c0-.5.4-.9.8-.9s.8.4.8.9v6.4c0,.5-.4.9-.8.9Z"/>
  </g>
  <g>
    <path class="cls-1" d="M14.5,9.9c-.3,0-.6-.1-.7-.4l-3.4-5.5c-.2-.4-.1-.9.3-1.2.4-.2.9-.1,1.2.3l3.4,5.5c.2.4.1.9-.3,1.2-.1,0-.3.1-.4.1Z"/>
    <path class="cls-1" d="M34.2,41.9c-.3,0-.6-.1-.7-.4l-3.3-5.4c-.2-.4-.1-.9.3-1.2.4-.2.9-.1,1.2.3l3.3,5.4c.2.4.1.9-.3,1.2-.1,0-.3.1-.4.1Z"/>
  </g>
  <g>
    <path class="cls-1" d="M9,15.8c-.1,0-.3,0-.4-.1l-5.6-3.1c-.4-.2-.6-.7-.3-1.2s.7-.6,1.2-.3l5.6,3.1c.4.2.6.7.3,1.2-.2.3-.4.4-.7.4Z"/>
    <path class="cls-1" d="M42,33.7c-.1,0-.3,0-.4-.1l-5.6-3c-.4-.2-.6-.7-.3-1.2s.7-.6,1.2-.3l5.6,3c.4.2.6.7.3,1.2-.2.3-.4.4-.7.4Z"/>
  </g>
</svg>