<?xml version="1.0" encoding="UTF-8"?>
<svg id="Capa_1" data-name="Capa 1" xmlns="http://www.w3.org/2000/svg" version="1.1" viewBox="0 0 45 45">
  <defs>
    <style>
      .cls-1 {
        fill: #f7931d;
        stroke-width: 0px;
      }
    </style>
  </defs>
  <g id="Grupo_20" data-name="Grupo 20">
    <path class="cls-1" d="M26.2,37.9c-1.2,0-2.3-.4-3.2-1.3-.3-.3-.3-.9,0-1.2.3-.3.9-.3,1.2,0,1.1,1.1,2.9,1.1,4,0,1.1-1.1,1.1-2.9,0-4-.5-.5-1.2-.8-2-.8H4.3c-.5,0-.8-.4-.8-.9s.4-.9.8-.9h21.9c1.2,0,2.3.5,3.2,1.3,1.8,1.8,1.7,4.6,0,6.4-.9.9-2,1.3-3.2,1.3ZM36.2,23.4H4.3c-.5,0-.8-.4-.8-.9s.4-.9.8-.9h31.9c1,0,1.9-.4,2.6-1.1,1.4-1.4,1.5-3.8,0-5.3-.7-.7-1.6-1.1-2.6-1.1h0c-1,0-1.9.4-2.6,1.1-.3.3-.9.3-1.2,0s-.3-.9,0-1.2c1-1,2.4-1.6,3.8-1.6h0c1.4,0,2.8.6,3.8,1.6,2.1,2.1,2.1,5.5,0,7.7-1,1-2.4,1.6-3.8,1.6ZM20.7,16.1H4.3c-.5,0-.8-.4-.8-.9s.4-.9.8-.9h16.4c.7,0,1.5-.3,2-.8.5-.5.8-1.2.8-2,0-.7-.3-1.4-.8-2-.5-.5-1.2-.8-2-.8h0c-.7,0-1.5.3-2,.8-.3.3-.9.3-1.2,0-.3-.3-.3-.9,0-1.2.8-.9,2-1.3,3.2-1.3h0c1.2,0,2.3.5,3.2,1.3.9.8,1.3,2,1.3,3.2,0,1.2-.5,2.3-1.3,3.2-.8.8-2,1.3-3.2,1.3Z"/>
  </g>
</svg>