<?xml version="1.0" encoding="UTF-8"?>
<svg id="Capa_1" data-name="Capa 1" xmlns="http://www.w3.org/2000/svg" version="1.1" viewBox="0 0 45 45">
  <defs>
    <style>
      .cls-1 {
        fill: #494647;
        stroke-width: 0px;
      }
    </style>
  </defs>
  <path class="cls-1" d="M12.4,36.9c-6.5,0-11.7-5.3-11.7-11.7s5.3-11.7,11.7-11.7.8,0,1.6.3c0,0,.2,0,.2,0h0c2.6-3.6,6.6-5.6,11-5.6s10.8,3.5,12.8,8.7c3.8,1.4,6.2,5,6.2,9.3s-4.5,10.1-10.1,10.1l-21.8.6s0,0,0,0ZM12.4,15.4c-5.4,0-9.7,4.4-9.7,9.7s4.4,9.7,9.7,9.7l21.8-.6c4.5,0,8.1-3.6,8.1-8.1s-1.9-6.4-5-7.5c-.1,0-.2,0-.3-.2l-.3-.2c-.1-.1-.3-.3-.3-.4-1.7-4.6-6.1-7.7-11-7.7s-7.1,1.7-9.4,4.7l-.5.6c-.2.3-.6.4-.9.4-.2,0-.5,0-.9-.2-.4,0-1.1-.2-1.3-.2Z"/>
</svg>